<?xml version="1.0" encoding="UTF-8" standalone="no"?>
<!-- Created with Inkscape (http://www.inkscape.org/) -->

<svg
   version="1.1"
   id="svg2"
   width="264.66666"
   height="264.57333"
   viewBox="0 0 264.66666 264.57333"
   sodipodi:docname="amblem.eps"
   xmlns:inkscape="http://www.inkscape.org/namespaces/inkscape"
   xmlns:sodipodi="http://sodipodi.sourceforge.net/DTD/sodipodi-0.dtd"
   xmlns="http://www.w3.org/2000/svg"
   xmlns:svg="http://www.w3.org/2000/svg">
  <defs
     id="defs6" />
  <sodipodi:namedview
     id="namedview4"
     pagecolor="#ffffff"
     bordercolor="#000000"
     borderopacity="0.25"
     inkscape:showpageshadow="2"
     inkscape:pageopacity="0.0"
     inkscape:pagecheckerboard="0"
     inkscape:deskcolor="#d1d1d1" />
  <g
     id="g8"
     inkscape:groupmode="layer"
     inkscape:label="ink_ext_XXXXXX"
     transform="matrix(1.3333333,0,0,-1.3333333,0,264.57333)">
    <g
       id="g10"
       transform="scale(0.1)">
      <path
         d="M 1980,992.125 C 1980,445.359 1536.76,2.12891 990,2.12891 443.238,2.12891 0,445.359 0,992.125 c 0,546.765 443.238,990.005 990,990.005 546.76,0 990,-443.24 990,-990.005"
         style="fill:#ffffff;fill-opacity:1;fill-rule:nonzero;stroke:none"
         id="path12" />
      <path
         d="M 1985.04,992.125 C 1985.04,444.191 1540.85,0 992.914,0 444.977,0 0.78125,444.191 0.78125,992.125 c 0,547.945 444.19575,992.135 992.13275,992.135 547.936,0 992.126,-444.19 992.126,-992.135"
         style="fill:#ffffff;fill-opacity:1;fill-rule:nonzero;stroke:none"
         id="path14" />
      <path
         d="m 877.641,299.582 c 0,-2.703 -0.61,-16.172 -0.61,-21.273 v -67.09 c 0,-9.43 1.059,-16.617 12.739,-18.707 v -1.793 h -40.43 v 1.793 c 11.519,0.898 12.582,8.379 12.582,18.707 v 54.82 c 0,9.731 -0.305,14.383 -3.75,14.383 -1.942,0 -7.031,-1.801 -10.629,-3.301 l -1.352,2.25 c 10.039,4.777 21.118,11.969 29.657,21.559 l 1.793,-1.348"
         style="fill:#101314;fill-opacity:1;fill-rule:nonzero;stroke:none"
         id="path16" />
      <path
         d="m 957.922,264.539 c 0,20.82 -9.43,33.09 -19.922,33.09 -10.785,0 -18.719,-11.969 -18.719,-29.809 0,-16.449 8.082,-29.488 20.821,-29.488 5.242,0 10.171,2.246 14.98,4.648 1.191,5.68 2.84,13.02 2.84,21.559 m -42.832,-73.82 c 24.113,5.23 35.047,32.203 38.933,49.121 -2.98,-1.961 -11.968,-7.481 -20.824,-7.481 -14.515,0 -29.324,14.36 -29.324,33.371 0,17.84 13.305,35.2 34.27,35.2 23.66,0 34.589,-21.86 34.589,-40.43 0,-27.27 -19.011,-66.93 -58.101,-72.48 l 0.457,2.699"
         style="fill:#101314;fill-opacity:1;fill-rule:nonzero;stroke:none"
         id="path18" />
      <path
         d="m 1040,264.539 c 0,20.82 -9.43,33.09 -19.91,33.09 -10.78,0 -18.71,-11.969 -18.71,-29.809 0,-16.449 8.08,-29.488 20.8,-29.488 5.25,0 10.19,2.246 14.99,4.648 1.18,5.68 2.83,13.02 2.83,21.559 m -42.828,-73.82 c 24.118,5.23 35.038,32.203 38.948,49.121 -3,-1.961 -11.99,-7.481 -20.82,-7.481 -14.54,0 -29.351,14.36 -29.351,33.371 0,17.84 13.313,35.2 34.301,35.2 23.65,0 34.59,-21.86 34.59,-40.43 0,-27.27 -19.03,-66.93 -58.11,-72.48 l 0.442,2.699"
         style="fill:#101314;fill-opacity:1;fill-rule:nonzero;stroke:none"
         id="path20" />
      <path
         d="m 1067.87,274.719 c 5.99,14.832 17.52,26.211 35.2,26.211 15.86,0 29.95,-11.231 29.95,-27.852 0,-11.539 -6.75,-20.668 -9.13,-23.359 -5.25,-5.84 -13.03,-14.828 -16.78,-18.578 l -28.3,-27.852 h 31.29 c 16.63,0 22.77,2.852 27.4,6.742 l 2.11,-1.64 c -7.19,-8.082 -8.85,-13.34 -10.19,-17.672 h -66.34 v 1.953 c 6.75,6.129 14.37,14.078 26.81,28.297 17.83,20.371 27.71,33.691 27.71,48.511 0,14.379 -9.43,21.86 -19.92,21.86 -11.53,0 -21.12,-7.77 -27.26,-17.668 l -2.55,1.047"
         style="fill:#101314;fill-opacity:1;fill-rule:nonzero;stroke:none"
         id="path22" />
      <path
         d="m 992.914,409.551 c -321.793,0 -582.539,260.929 -582.539,582.707 0,321.722 260.746,582.442 582.539,582.442 321.656,0 582.536,-260.72 582.536,-582.442 0,-321.778 -260.88,-582.707 -582.536,-582.707"
         style="fill:#33b257;fill-opacity:1;fill-rule:evenodd;stroke:none"
         id="path24" />
      <path
         d="m 782.094,948.922 c -5.43,-1.07 -10.762,-1.613 -16.172,-1.902 l 98.101,-403.54 v 407.918 c -5.21,1.051 -9.191,5.551 -9.191,10.801 0,6.371 5.371,11.461 11.973,11.461 6.578,0 12.054,-5.09 12.054,-11.461 0,-5.25 -3.886,-9.699 -9.086,-10.75 V 543.641 l 98,403.379 c -5.757,0.289 -11.187,1 -16.269,1.902 -34.012,7.476 -59.469,37.625 -59.469,73.958 0,41.62 33.887,75.62 75.738,75.62 h 25.141 25.256 c 41.74,0 75.61,-34 75.61,-75.62 0,-36.333 -25.46,-66.482 -59.45,-73.958 -5.11,-0.902 -10.52,-1.613 -16.16,-1.902 l 97.98,-403.379 v 407.808 c -5.21,1.051 -9.08,5.5 -9.08,10.75 0,6.371 5.33,11.461 11.96,11.461 6.65,0 11.85,-5.09 11.85,-11.461 0,-5.25 -3.77,-9.75 -9.14,-10.801 V 543.641 l 98.17,403.379 c -5.43,0.289 -10.75,0.832 -16.17,1.902 -34.11,7.476 -59.58,37.625 -59.58,73.958 0,41.62 33.95,75.62 75.75,75.62 h 100.86 v 50.55 83.33 h 25.25 l 10.85,17.5 h -44.56 c 8.36,4.58 35.7,20.91 27.06,43.06 0,0 -3.38,5.98 -17.77,21.54 -14.39,15.67 -12.9,30.24 -12.41,32.17 l 0.85,4.53 c 0,0 -9.87,-0.48 -17.4,-5.52 -5.47,-3.77 -8.4,-5.82 -9.74,-14.62 0.12,-14.9 8.52,-22.81 14.51,-28.18 9.58,-9.41 20.26,-19.66 21.16,-30.84 0.87,-8.92 -5.38,-18.77 -7.71,-22.14 h -4.59 c 4.2,3.59 12.84,15.5 6.58,27.85 -5.86,14.22 -19.86,21.81 -26.17,30.11 -6.33,8.3 -7.1,18.66 -7.1,18.66 0,0 -15.61,-13.79 -13.89,-26.25 1.76,-12.35 21.15,-17.99 28.06,-22.86 6.98,-4.82 10.31,-8.8 12.01,-13.9 1.62,-3.94 -0.16,-10.9 -1.03,-13.61 h -5.28 c 1.07,1.81 2.94,5.46 2.94,8.19 0,3.76 -0.77,7.59 -7.08,12.51 -4.89,5.15 -10.97,6.31 -22.59,12.07 -8.24,3.2 -11.46,14.78 -10.91,15.89 0,0 -6.96,-7.38 -5.03,-14.78 1.88,-7.21 8.91,-10.19 22.46,-16.23 11.09,-4.98 17.01,-14.39 19,-17.65 h -43.23 v -17.5 h 39.13 c 0.35,-2.6 0.51,-5.33 0.51,-7.97 0,-20.66 -8.32,-39.37 -21.93,-53.1 -13.51,-13.62 -32.11,-22.14 -52.81,-22.43 h -0.12 -0.05 -0.83 c -41.86,0 -75.63,33.83 -75.63,75.53 v 2.05 c 0.1,0.54 0.1,1.21 0.1,1.93 0,0.72 0.12,1.22 0.12,1.83 v 0.1 l 0.12,7.21 c 20.7,9.51 35.13,30.27 35.13,54.59 0,32.93 -26.89,59.73 -59.72,59.73 -33,0 -59.8,-26.8 -59.8,-59.73 0,-23.92 14.02,-44.46 34.45,-53.98 l -0.12,-7.82 v -0.1 c 0.12,-0.61 0.12,-1.11 0.22,-1.83 v -1.93 -2.05 c 0,-41.7 -33.87,-75.53 -75.61,-75.53 l -25.256,0.17 -25.141,-0.17 c -41.851,0 -75.738,33.83 -75.738,75.53 v 2.05 c 0.117,0.59 0.117,1.21 0.117,1.93 0.039,0.72 0.039,1.22 0.114,1.83 v 0.1 l -0.075,7.82 c 20.274,9.52 34.395,30.06 34.395,53.98 0,32.93 -26.906,59.73 -59.781,59.73 -32.953,0 -59.809,-26.8 -59.809,-59.73 0,-24.32 14.508,-45.08 35.219,-54.59 l 0.168,-7.21 v -0.1 c 0.043,-0.61 0.043,-1.11 0.043,-1.83 v -1.93 c 0.117,-0.73 0.117,-1.39 0.117,-2.05 0,-41.7 -33.949,-75.53 -75.738,-75.53 h -0.883 c -20.66,0.29 -39.371,8.81 -52.817,22.43 -13.57,13.73 -21.812,32.44 -21.812,53.1 0,2.64 0.113,5.37 0.332,7.97 h 39.074 v 17.5 h -42.965 c 1.782,3.26 7.7,12.67 18.891,17.65 13.578,6.04 20.602,9.02 22.469,16.23 1.961,7.4 -5.262,14.78 -5.262,14.78 0.672,-1.11 -2.539,-12.69 -10.777,-15.89 -11.641,-5.76 -17.672,-6.92 -22.543,-12.07 -6.309,-4.92 -6.969,-8.75 -7.149,-12.51 0,-2.73 1.891,-6.38 2.996,-8.19 h -5.257 c -0.887,2.71 -2.547,9.67 -1.118,13.61 1.778,5.1 5.047,9.08 12.129,13.9 6.938,4.87 26.289,10.51 28.09,22.86 1.82,12.46 -14.082,26.25 -14.082,26.25 0,0 -0.777,-10.36 -6.969,-18.66 -6.199,-8.3 -20.379,-15.89 -26.25,-30.11 -6.25,-12.35 2.434,-24.26 6.633,-27.85 h -4.523 c -2.328,3.37 -8.625,13.22 -7.746,22.14 0.988,11.18 11.507,21.43 21.199,30.84 5.918,5.37 14.277,13.28 14.449,28.18 -1.328,8.8 -4.32,10.85 -9.742,14.62 -7.52,5.04 -17.606,5.52 -17.606,5.52 l 1.098,-4.53 c 0.449,-1.93 1.949,-16.5 -12.512,-32.17 -14.347,-15.56 -17.699,-21.54 -17.699,-21.54 -8.652,-22.15 18.59,-38.48 27.012,-43.06 h -44.512 l 10.84,-17.5 h 25.25 v -83.33 -50.55 h 100.879 c 41.754,0 75.621,-34 75.621,-75.62 0,-36.333 -25.473,-66.482 -59.449,-73.958"
         style="fill:#ffffff;fill-opacity:1;fill-rule:nonzero;stroke:none"
         id="path26" />
      <path
         d="m 992.914,99.6797 v 0 c -492.851,0 -892.461,399.5583 -892.461,892.5783 0,492.802 399.61,892.422 892.461,892.422 492.946,0 892.456,-399.62 892.456,-892.422 0,-493.02 -399.51,-892.5783 -892.456,-892.5783 m 0,1816.1703 c -510.23,0 -923.8085,-413.46 -923.8085,-923.592 0,-510.348 413.5785,-923.8166 923.8085,-923.8166 510.116,0 923.686,413.4686 923.686,923.8166 0,510.132 -413.57,923.592 -923.686,923.592"
         style="fill:#33b257;fill-opacity:1;fill-rule:evenodd;stroke:none"
         id="path28" />
      <path
         d="m 499.445,602.602 -144.332,-93.274 -20.047,30.902 65.442,42.161 -96.551,5.828 -23.031,35.75 99.273,-9.168 43.914,104.281 24.016,-37.141 -44.293,-97.32 75.621,48.711 19.988,-30.73"
         style="fill:#101314;fill-opacity:1;fill-rule:nonzero;stroke:none"
         id="path30" />
      <path
         d="m 364.477,810.949 v 0 c -4.379,14.781 -13.231,25.68 -26.52,32.492 -13.23,6.7 -27.801,7.707 -43.633,3.2 -15.437,-4.52 -27.136,-13.153 -34.988,-26.18 -7.75,-12.949 -9.738,-26.789 -5.43,-41.563 4.328,-14.796 13.192,-25.648 26.75,-32.5 13.551,-6.769 28.067,-7.816 43.789,-3.449 15.832,4.711 27.52,13.223 35.098,25.973 7.754,12.719 9.312,26.629 4.934,42.027 m -80.571,71.91 c 11.86,3.563 23.758,4.59 35.379,3.2 11.68,-1.418 22.824,-4.918 33.289,-11.11 10.52,-6.148 19.602,-14.008 27.121,-23.59 7.52,-9.57 12.91,-19.988 16.172,-31.507 2.93,-9.813 3.981,-20.102 3.551,-30.832 -0.621,-10.899 -3.004,-21.141 -7.051,-30.891 -5.25,-12.629 -12.89,-23.43 -23.082,-32.348 -9.84,-8.953 -21.355,-15.383 -34.43,-19.152 -11.839,-3.379 -23.64,-4.469 -35.257,-3.09 -11.68,1.223 -22.774,4.922 -33.282,11.02 -10.41,6.031 -19.378,13.953 -27.128,23.64 -7.641,9.731 -13.129,20.301 -16.391,31.77 -3.32,11.672 -4.418,23.601 -3.109,35.422 1.328,12.199 4.96,23.55 10.531,34.168 5.648,10.75 13.066,19.832 22.246,27.312 9.262,7.238 19.824,12.617 31.441,15.988"
         style="fill:#101314;fill-opacity:1;fill-rule:nonzero;stroke:none"
         id="path32" />
      <path
         d="m 242.063,1082.66 c -6.758,-7.12 -11.747,-14.73 -15.168,-22.45 -1.661,-4.05 -2.942,-8 -3.868,-12.14 -0.832,-3.88 -1.336,-8.31 -1.461,-12.96 -0.543,-18.32 4.489,-32.99 15.289,-44.188 10.758,-11.172 25.247,-16.922 43.625,-17.41 18.051,-0.461 32.442,4.308 43.184,13.992 11.078,9.91 16.777,23.366 17.051,41.016 0.34,9.75 -1.094,18.93 -4.141,27.64 -2.937,8.63 -7.754,16.72 -14.34,24.3 l 37.539,-1.33 c 4.43,-7.75 7.633,-15.95 9.622,-24.8 2.152,-8.75 3.109,-17.84 2.839,-27.14 -0.687,-27.295 -9.808,-49.542 -27.191,-66.721 -17.5,-17.188 -39.309,-25.5 -65.441,-24.739 -25.965,0.61 -47.289,9.872 -63.836,28.071 -16.621,18.168 -24.532,40.919 -23.911,68.649 0.219,9.36 1.379,18.44 3.641,26.92 1.051,4.31 2.387,8.51 3.938,12.85 1.711,4.32 3.48,8.51 5.761,12.67 l 36.868,-2.23"
         style="fill:#101314;fill-opacity:1;fill-rule:nonzero;stroke:none"
         id="path34" />
      <path
         d="m 340.715,1221.24 v 0 l -58.91,-1.6 -8.629,0.51 -14.828,1.87 c 5.308,-2.71 9.738,-5.15 13.507,-7.48 l 7.754,-4.59 46.547,-34.22 z m 29.18,-124.07 -144.11,114.23 12.801,40.02 183.75,11.4 -12.633,-39.91 -38.805,-2.21 -20.203,-63.46 31.102,-22.46 -11.902,-37.61"
         style="fill:#101314;fill-opacity:1;fill-rule:nonzero;stroke:none"
         id="path36" />
      <path
         d="m 436.281,1281.82 -145.953,90.85 53.606,85.76 26.347,-16.33 -34.109,-54.59 29.898,-18.77 34.125,54.65 26.567,-16.44 -34.16,-54.71 36.589,-22.76 34.094,54.65 26.488,-16.44 -53.492,-85.87"
         style="fill:#101314;fill-opacity:1;fill-rule:nonzero;stroke:none"
         id="path38" />
      <path
         d="m 516.781,1399.91 -123.129,119.98 25.696,26.24 100.644,-98.05 40.977,41.97 22.422,-21.82 -66.61,-68.32"
         style="fill:#101314;fill-opacity:1;fill-rule:nonzero;stroke:none"
         id="path40" />
      <path
         d="m 609.184,1486.61 v 0 l -101.149,138.85 29.621,21.7 101.258,-138.85 z m -121.079,170.75 c -2.406,3.37 -3.273,7.3 -2.605,11.78 0.613,4.77 2.605,8.2 5.934,10.52 3.648,2.72 7.519,3.61 11.949,2.77 4.539,-0.6 8.031,-2.77 10.523,-6.25 2.547,-3.6 3.645,-7.48 2.977,-11.79 -0.649,-4.38 -2.809,-7.92 -6.528,-10.63 -3.32,-2.56 -7.242,-3.44 -11.8,-2.71 -4.305,0.71 -7.789,2.71 -10.45,6.31"
         style="fill:#101314;fill-opacity:1;fill-rule:nonzero;stroke:none"
         id="path42" />
      <path
         d="m 769.074,1796.7 v 0 c -1.047,3.82 -0.621,7.72 1.551,11.36 2.039,3.81 5.148,6.31 9.117,7.47 4.113,1.1 7.996,0.77 11.531,-1.44 3.543,-1.94 6.032,-4.93 7.192,-8.92 1.109,-4.37 0.89,-8.19 -1.098,-11.85 -1.871,-3.59 -5.101,-5.97 -9.199,-7.14 -4.262,-1.05 -8.07,-0.77 -11.832,1.27 -3.621,2 -5.992,5.04 -7.262,9.25 m -42.031,-12 c 1.105,-4.32 3.551,-7.31 7.215,-9.36 3.644,-2.01 7.414,-2.55 11.629,-1.17 4.136,1.06 7.308,3.38 9.226,6.97 1.942,3.66 2.391,7.64 1.184,11.91 -1.184,4.04 -3.652,7.03 -7.324,9.02 -3.649,2.06 -7.528,2.49 -11.399,1.33 -3.996,-1.22 -6.98,-3.65 -9.148,-7.47 -2.031,-3.71 -2.539,-7.53 -1.383,-11.23 m 117.164,-5.66 29.508,-102.86 c 6.371,-22.38 5.359,-40.58 -3.16,-55.09 -8.637,-14.45 -24.907,-25.2 -48.77,-32 -24.019,-6.92 -43.398,-6.48 -58.652,1.16 -14.926,7.59 -25.688,22.64 -32.09,44.9 l -29.457,102.75 34.988,10.14 27.969,-97.22 c 3.91,-13.56 9.895,-22.98 17.863,-28.07 8.035,-5.04 17.957,-5.98 29.836,-2.54 12.074,3.38 20.106,9.51 24.313,18.15 4.172,8.8 4.332,19.99 0.441,33.33 l -27.891,97.11 35.102,10.24"
         style="fill:#101314;fill-opacity:1;fill-rule:nonzero;stroke:none"
         id="path44" />
      <path
         d="m 932.113,1619.93 5.438,171.79 38.082,-1.22 72.867,-102.3 c 1.87,-2.78 4.08,-6.82 6.76,-12.25 2.26,-4.75 4.86,-10.84 7.56,-18.26 -0.03,2.16 -0.38,4.48 -0.71,7.14 -0.16,2.55 -0.44,5.32 -0.54,8.13 0.03,1.84 0.03,5.1 0,9.47 v 9.2 l 2.98,96.05 35.1,-1.05 -5.42,-171.79 -36.05,1.21 -74.914,104.2 c -1.993,2.98 -4.262,7.03 -6.641,12.01 -2.262,5.15 -4.922,11.4 -7.75,18.71 0.68,-4.53 1.109,-9.52 1.449,-15.06 -0.121,-1.87 -0.121,-5.2 0,-9.69 v -9.24 l -3.211,-98.1 -35,1.05"
         style="fill:#101314;fill-opacity:1;fill-rule:nonzero;stroke:none"
         id="path46" />
      <path
         d="m 1194,1802.75 v 0 c 1.1,3.92 3.52,7.14 7.46,9.4 3.93,2.43 7.92,3.1 11.89,1.94 4.23,-1.05 7.44,-3.6 9.76,-7.58 2.1,-3.76 2.76,-8.09 1.66,-12.13 -1.17,-4.27 -3.54,-7.53 -7.42,-9.68 -3.6,-2.38 -7.86,-2.77 -12.4,-1.72 -3.97,1.27 -7.13,3.65 -9.41,7.52 -2.22,3.88 -2.76,7.92 -1.54,12.25 m -57.14,-201.47 44.74,165.86 35.52,-9.57 -44.71,-166 -35.55,9.71"
         style="fill:#101314;fill-opacity:1;fill-rule:nonzero;stroke:none"
         id="path48" />
      <path
         d="m 1255.83,1560.07 19.38,182.1 36.37,-18.1 -17.61,-110.78 -2.76,-12.35 -5.31,-19.93 c 4.31,6.19 8.07,11.62 11.74,16.11 1.81,2.21 3.38,4.15 4.86,5.8 1.56,1.78 3.1,3.62 4.65,5.1 l 77.4,79.78 35.99,-17.77 -133.64,-125.45 -31.07,15.49"
         style="fill:#101314;fill-opacity:1;fill-rule:nonzero;stroke:none"
         id="path50" />
      <path
         d="m 1361.96,1499.84 111.63,130.78 76.83,-65.73 -20.03,-23.59 -49.07,41.81 -22.8,-27.02 48.84,-41.68 -20.17,-23.75 -48.95,41.84 -28.05,-32.82 48.94,-41.75 -20.16,-23.75 -77.01,65.66"
         style="fill:#101314;fill-opacity:1;fill-rule:nonzero;stroke:none"
         id="path52" />
      <path
         d="m 1568.48,1432.47 v 0 l 3.2,-4.49 c 8.75,-11.97 15.95,-18.87 21.27,-20.88 5.53,-1.93 11.52,-0.6 17.86,4.04 6.95,5.04 10.33,10.75 10.05,16.84 -0.17,6.37 -4.37,15.23 -12.63,26.57 l -3.32,4.33 z m -28.24,-128.79 -24.91,34.11 38.31,83.88 -64.89,-47.28 -21.7,29.66 138.84,101.16 30.9,-42.46 c 12.41,-17.05 18.5,-31.95 17.95,-45.24 -0.46,-13.12 -7.16,-24.47 -20.38,-34.04 -9.52,-6.92 -19.66,-10.08 -30.62,-9.3 -10.91,1 -20.2,5.42 -28.29,13.78 l -35.21,-84.27"
         style="fill:#101314;fill-opacity:1;fill-rule:nonzero;stroke:none"
         id="path54" />
      <path
         d="m 1567.14,1297.43 29.07,-9.86 c -4.64,-4.75 -7.59,-10.68 -8.8,-17.27 -1.06,-6.81 -0.33,-13.28 2.44,-19.82 3.32,-8.03 7.87,-13.56 13.51,-16.44 5.75,-3.21 11.63,-3.38 18.05,-0.61 7.4,3.16 11.74,13.95 12.72,32.38 l 0.89,14.3 c 1.33,16.7 4.32,29.16 9.08,37.58 4.65,8.31 11.74,14.39 21.25,18.44 12.97,5.42 25.86,4.92 38.66,-1.94 12.73,-6.87 22.54,-18.55 29.44,-35 2.24,-4.97 3.56,-9.63 4.44,-13.89 0.83,-4.43 1.21,-8.69 1,-13.06 -0.33,-8.36 -3,-16.72 -7.97,-25.14 l -27.58,12.01 c 3.54,4.22 5.65,8.69 6.19,13.73 0.68,5.1 -0.04,10.31 -2.32,15.68 -2.88,6.8 -6.86,11.63 -11.84,14.28 -5.08,2.72 -10.31,2.82 -15.72,0.55 -8.26,-3.48 -12.46,-14.83 -12.64,-34.1 v -8.75 c -0.44,-15.78 -3.25,-28.52 -8.29,-38.48 -4.99,-9.85 -12.52,-16.72 -22.26,-20.82 -14.84,-6.25 -28.61,-6.03 -41.97,0.23 -13.06,6.37 -23.25,18.15 -30.48,35.32 -5.07,12.13 -7.39,23.42 -6.88,33.83 0.61,10.29 3.87,19.21 10.01,26.85"
         style="fill:#101314;fill-opacity:1;fill-rule:nonzero;stroke:none"
         id="path56" />
      <path
         d="m 1804.99,1188.03 v 0 c 4.04,0.89 7.97,0.11 11.97,-2.32 3.85,-2.33 6.3,-5.65 7.19,-9.7 0.93,-4.14 0.22,-8.19 -2.21,-12.07 -2.43,-3.7 -5.77,-6.19 -10.08,-7.07 -4.22,-0.96 -8.26,-0.34 -12.08,2.04 -3.71,2.27 -6.09,5.63 -7.15,10.18 -0.87,4.11 -0.04,8.03 2.29,11.86 2.44,3.65 5.74,6.13 10.07,7.08 m -204.9,-42.85 167.69,37.31 7.98,-35.82 -167.75,-37.42 -7.92,35.93"
         style="fill:#101314;fill-opacity:1;fill-rule:nonzero;stroke:none"
         id="path58" />
      <path
         d="m 1759.59,1005.28 -140.4,-5.932 -1.56,36.812 140.52,5.93 -1.78,41.96 31.17,1.45 5.09,-121.07 -31.16,-1.328 -1.88,42.178"
         style="fill:#101314;fill-opacity:1;fill-rule:nonzero;stroke:none"
         id="path60" />
      <path
         d="m 1617.63,927.711 169.08,-31.129 -18.37,-99.602 -30.45,5.77 11.74,63.281 -34.83,6.36 -11.69,-63.282 -30.78,5.61 11.74,63.312 -42.41,7.809 -11.63,-63.371 -30.84,5.582 18.44,99.66"
         style="fill:#101314;fill-opacity:1;fill-rule:nonzero;stroke:none"
         id="path62" />
      <path
         d="m 1611.12,790.789 13.28,-27.687 c -6.71,0 -12.74,-1.922 -18.51,-5.973 -5.53,-3.598 -9.73,-8.918 -12.5,-15.5 -3.32,-7.93 -4.1,-14.899 -2.28,-21.277 1.72,-6.024 5.94,-10.403 12.25,-13.102 7.4,-3.102 18.05,1.379 32.11,13.609 l 10.73,9.43 c 12.8,10.672 23.98,17.371 33.18,19.82 9.23,2.36 18.64,1.692 28.06,-2.238 12.95,-5.512 21.71,-15.262 25.68,-28.992 3.99,-14.129 2.56,-29.25 -4.32,-45.731 -2.1,-4.816 -4.31,-9.128 -6.79,-12.75 -2.61,-3.808 -5.43,-7.078 -8.81,-9.91 -6.05,-5.578 -14,-9.617 -23.37,-11.847 l -10.73,27.968 c 5.32,0.493 10.18,2.2 14.16,5.161 4.05,3.019 7.09,7.3 9.52,12.832 2.89,6.757 3.43,13.007 1.83,18.32 -1.6,5.539 -5.13,9.359 -10.46,11.68 -8.31,3.378 -19.38,-1.543 -33.16,-14.891 l -6.48,-5.981 c -11.52,-10.8 -22.53,-17.82 -33.18,-21.019 -10.52,-3.281 -20.74,-2.84 -30.6,1.148 -14.67,6.301 -24.36,16.282 -29.01,30.223 -4.59,13.797 -3.27,29.188 3.89,46.449 5.08,12.199 11.5,21.668 19.26,28.367 7.74,7.082 16.48,11 26.25,11.891"
         style="fill:#101314;fill-opacity:1;fill-rule:nonzero;stroke:none"
         id="path64" />
      <path
         d="m 1697.14,542.48 v 0 c 3.56,-2.429 5.69,-5.75 6.63,-10.179 1.12,-4.59 0.4,-8.59 -1.81,-12.071 -2.48,-3.449 -5.82,-5.769 -10.3,-6.64 -4.48,-0.949 -8.46,-0.059 -12.08,2.191 -3.7,2.5 -5.91,5.821 -6.85,10.09 -1,4.32 -0.18,8.41 2.48,12.129 2.26,3.648 5.65,5.809 9.97,6.762 4.37,0.718 8.3,0.117 11.96,-2.282 m -172.84,117.918 143.16,-94.82 -20.37,-30.746 -143.06,95.02 20.27,30.546"
         style="fill:#101314;fill-opacity:1;fill-rule:nonzero;stroke:none"
         id="path66" />
      <path
         d="m 992.914,33.6602 v 0 c -529.391,0 -958.5702,429.1988 -958.5702,958.5978 0,529.332 429.1792,958.362 958.5702,958.362 529.376,0 958.446,-429.03 958.446,-958.362 0,-529.399 -429.07,-958.5978 -958.446,-958.5978 m 0,1950.6098 C 444.926,1984.27 0.785156,1540.09 0.785156,992.258 0.785156,444.141 444.926,0.03125 992.914,0.03125 c 547.976,0 992.126,444.10975 992.126,992.22675 0,547.832 -444.15,992.012 -992.126,992.012"
         style="fill:#101314;fill-opacity:1;fill-rule:evenodd;stroke:none"
         id="path68" />
    </g>
  </g>
</svg>
